<svg viewBox="0 0 845.18 197.05" xmlns="http://www.w3.org/2000/svg"><path d="m121.33 194.11a123.51 123.51 0 0 1 -81.54-116.8 123.49 123.49 0 0 1 137.35-37.74l.42.16a94.51 94.51 0 0 0 -50.63 25.73 43.6 43.6 0 0 1 -27.69 76.65 94.53 94.53 0 0 0 22.51 52.14z" fill="#fff"/><path d="m39.79 77.31a124 124 0 0 1 22.51-70.37 98.48 98.48 0 0 1 115.26 32.79l-.42-.16a123.49 123.49 0 0 0 -137.35 37.74z" fill="#e83774"/><path d="m39.79 77.31a124 124 0 0 1 22.51-70.37 98.48 98.48 0 0 1 115.26 32.79l-.42-.16a123.49 123.49 0 0 0 -137.35 37.74z" fill="#0291a9"/><path d="m65.07 191.17a98.5 98.5 0 0 1 -2.77-184.23 123.43 123.43 0 0 0 59 187.17l.42.14a98 98 0 0 1 -56.65-3.08z" fill="#01465a"/><circle cx="98.53" cy="98.53" fill="#01465a" r="30"/><path d="m121.75 194.25a94.53 94.53 0 0 1 -22.51-52.14 43.6 43.6 0 0 0 27.69-76.65 94.51 94.51 0 0 1 50.63-25.73 98.5 98.5 0 0 1 -55.81 154.52z" fill="#0291a9"/><g fill="#02465a"><path d="m246.66 73.85h-5.55v-8.06l5.55-.45v-3.4c0-8.66 4-15.32 14.42-15.32a23.53 23.53 0 0 1 7.85 1.38l-2 8.06a11.83 11.83 0 0 0 -4.37-.88c-3.25 0-5 1.92-5 6.51v3.55h7.77v8.58h-7.77v32.88h-10.9zm24.78-21.23c0-3.55 2.52-5.92 6.29-5.92s6.37 2.37 6.37 5.92-2.59 6-6.37 6-6.29-2.38-6.29-6zm.89 12.65h10.8v41.43h-10.8z"/><path d="m294.82 65.27h8.88l.81 5.47h.22c3.63-3.55 7.85-6.51 13.47-6.51 8.95 0 12.8 6.22 12.8 16.65v25.82h-10.88v-24.49c0-6.43-1.77-8.65-5.84-8.65-3.4 0-5.55 1.62-8.58 4.66v28.48h-10.88z"/><path d="m340.17 95.46c0-8.88 7.18-13.54 23.9-15.32-.22-4.07-2-7.18-7.1-7.18-3.85 0-7.55 1.71-11.4 3.92l-3.92-7.17c4.88-3 10.8-5.48 17.31-5.48 10.51 0 15.91 6.29 15.91 18.28v24.19h-8.87l-.74-4.44h-.26c-3.63 3.11-7.77 5.48-12.51 5.48-7.44 0-12.32-5.25-12.32-12.28zm23.9-.3v-8.36c-10.14 1.26-13.54 4.07-13.54 7.77 0 3.25 2.29 4.66 5.48 4.66s5.4-1.48 8.06-4.07z"/><path d="m386 65.27h8.88l.81 5.47h.22c3.63-3.55 7.84-6.51 13.47-6.51 8.95 0 12.8 6.22 12.8 16.65v25.82h-10.91v-24.49c0-6.43-1.77-8.65-5.84-8.65-3.41 0-5.55 1.62-8.59 4.66v28.48h-10.84z"/><path d="m430.58 100.86 18.57-27h-16.5v-8.59h30v5.84l-18.57 27h19.24v8.58h-32.74z"/><path d="m471.19 65.27h8.88l.82 5.55h.22c3.48-3.63 7.32-6.59 12.73-6.59 5.91 0 9.39 2.67 11.39 7.25 3.77-4 7.77-7.25 13.17-7.25 8.8 0 12.87 6.22 12.87 16.65v25.82h-10.87v-24.49c0-6.43-1.85-8.65-5.77-8.65q-3.56 0-8 4.66v28.48h-10.8v-24.49c0-6.43-1.92-8.65-5.84-8.65-2.37 0-5 1.55-7.92 4.66v28.48h-10.88z"/><path d="m540.44 95.46c0-8.88 7.18-13.54 23.9-15.32-.22-4.07-2-7.18-7.1-7.18-3.85 0-7.55 1.71-11.4 3.92l-3.92-7.17c4.89-3 10.8-5.48 17.32-5.48 10.5 0 15.9 6.29 15.9 18.28v24.19h-8.88l-.73-4.44h-.3c-3.63 3.11-7.77 5.48-12.51 5.48-7.39 0-12.28-5.25-12.28-12.28zm23.9-.3v-8.36c-10.14 1.26-13.54 4.07-13.54 7.77 0 3.25 2.29 4.66 5.48 4.66s5.4-1.48 8.06-4.07z"/><path d="m586.24 65.27h8.88l.81 7.32h.22c3-5.4 7.48-8.36 11.77-8.36a11.69 11.69 0 0 1 4.88.89l-1.8 9.4a13.64 13.64 0 0 0 -4.36-.67c-3.26 0-7.18 2.15-9.48 8.14v24.71h-10.92z"/><path d="m618.49 47.66h10.73v35.44h.3l14.13-17.83h11.91l-14.2 17.09 15.54 24.34h-11.77l-10.06-17.16-5.85 6.66v10.5h-10.73z"/><path d="m662.22 92.2v-18.35h-5.84v-8.06l6.43-.52 1.26-11.17h9v11.17h10.21v8.58h-10.18v18.35c0 4.74 1.92 7 5.62 7a12.22 12.22 0 0 0 4.07-.89l1.78 7.92a27.09 27.09 0 0 1 -8.74 1.55c-9.83-.04-13.61-6.33-13.61-15.58z"/></g><path d="m687.89 65.27h10.88l4.51 20.42c.81 4.07 1.33 8 2.07 12.13h.3c.81-4.14 1.55-8.13 2.59-12.13l5-20.42h9.62l5.18 20.42c1 4.07 1.7 8 2.59 12.13h.37c.74-4.14 1.33-8.06 2.07-12.13l4.51-20.42h10.06l-10.2 41.43h-12.78l-4.36-18c-.89-3.92-1.55-7.69-2.37-12.06h-.37c-.81 4.37-1.4 8.21-2.29 12.06l-4.22 18h-12.43z" fill="#0191a9"/><path d="m752.41 86c0-13.4 9.47-21.76 19.31-21.76 11.39-.01 17.28 8.35 17.28 19.76a20.22 20.22 0 0 1 -.52 5h-25.48c.88 6.81 5.32 10.36 11.47 10.36a17.08 17.08 0 0 0 9.32-2.89l3.7 6.66a26.12 26.12 0 0 1 -14.43 4.59c-11.63.02-20.65-8.05-20.65-21.72zm27.3-4.22c0-5.55-2.52-9.1-7.84-9.1-4.37 0-8.22 3.11-9 9.1z" fill="#0191a9"/><path d="m798 95.09v-47.43h10.88v47.87c0 2.52 1.11 3.33 2.14 3.33a6 6 0 0 0 1.48-.15l1.33 8.07a14.63 14.63 0 0 1 -5.62 1c-7.57-.04-10.21-5-10.21-12.69z" fill="#0191a9"/><path d="m822.84 92.2v-18.35h-5.84v-8.06l6.44-.52 1.26-11.17h9v11.17h10.21v8.58h-10.2v18.35c0 4.74 1.93 7 5.63 7a12.22 12.22 0 0 0 4.07-.89l1.77 7.92a27 27 0 0 1 -8.73 1.55c-9.84-.04-13.61-6.33-13.61-15.58z" fill="#0191a9"/><g fill="#02465a"><path d="m251.71 163.78h-3.71v-28.51h3.76z"/><path d="m261.64 145.16a7.72 7.72 0 0 1 6.27-3q6.72 0 6.78 7.58v14h-3.63v-14a4.89 4.89 0 0 0 -1-3.39 4.23 4.23 0 0 0 -3.21-1.09 5.27 5.27 0 0 0 -3.09.93 6.43 6.43 0 0 0 -2.08 2.47v15.1h-3.68v-30.06h3.62z"/><path d="m290.36 145.84a11.16 11.16 0 0 0 -1.79-.13 4.76 4.76 0 0 0 -4.83 3v15h-3.63v-21.12h3.53l.06 2.45a5.64 5.64 0 0 1 5.05-2.84 3.8 3.8 0 0 1 1.61.27z"/><path d="m319.93 156.32h-11.93l-2.68 7.46h-3.88l10.89-28.51h3.29l10.91 28.51h-3.86zm-10.81-3.07h9.69l-4.81-13.34z"/><path d="m342.65 161.69a7.69 7.69 0 0 1 -6.21 2.48 6.59 6.59 0 0 1 -5.16-2 8.54 8.54 0 0 1 -1.79-5.83v-13.75h3.62v13.69q0 4.82 3.92 4.82 4.16 0 5.52-3.09v-15.42h3.62v21.19h-3.44z"/><path d="m350.82 153a12.43 12.43 0 0 1 2.29-7.88 7.9 7.9 0 0 1 12.12-.19l.18-2.35h3.31v20.68a8.65 8.65 0 0 1 -2.44 6.49 9 9 0 0 1 -6.55 2.37 11 11 0 0 1 -4.49-1 7.77 7.77 0 0 1 -3.35-2.69l1.88-2.17a7.1 7.1 0 0 0 5.7 2.88 5.53 5.53 0 0 0 4.12-1.49 5.67 5.67 0 0 0 1.48-4.19v-1.82a7.43 7.43 0 0 1 -5.93 2.5 7.22 7.22 0 0 1 -6-3c-1.56-1.96-2.32-4.68-2.32-8.14zm3.64.41a9.48 9.48 0 0 0 1.47 5.63 4.76 4.76 0 0 0 4.11 2 5.31 5.31 0 0 0 5-3.11v-9.68a5.36 5.36 0 0 0 -5-3 4.81 4.81 0 0 0 -4.13 2.05c-.91 1.4-1.45 3.43-1.45 6.12z"/><path d="m383 164.17a9.24 9.24 0 0 1 -7-2.83 10.49 10.49 0 0 1 -2.7-7.56v-.67a12.75 12.75 0 0 1 1.2-5.63 9.46 9.46 0 0 1 3.37-3.88 8.52 8.52 0 0 1 4.69-1.4 8 8 0 0 1 6.43 2.72q2.3 2.73 2.29 7.8v1.51h-14.4a7.63 7.63 0 0 0 1.83 5.06 5.79 5.79 0 0 0 4.46 1.93 6.24 6.24 0 0 0 3.25-.79 8 8 0 0 0 2.33-2.07l2.22 1.72a8.9 8.9 0 0 1 -7.97 4.09zm-.45-19a4.84 4.84 0 0 0 -3.68 1.59 7.84 7.84 0 0 0 -1.84 4.48h10.62v-.24a6.89 6.89 0 0 0 -1.49-4.27 4.53 4.53 0 0 0 -3.64-1.55z"/><path d="m405.38 137a2.17 2.17 0 0 1 .54-1.49 2.43 2.43 0 0 1 3.2 0 2.13 2.13 0 0 1 .55 1.49 2 2 0 0 1 -.55 1.47 2.14 2.14 0 0 1 -3.74-1.47zm3.92 26.81h-3.63v-21.22h3.63z"/><path d="m418.5 142.59.1 2.35a7.82 7.82 0 0 1 6.29-2.74q4.44 0 6.05 3.41a8 8 0 0 1 2.75-2.47 8.09 8.09 0 0 1 4-.94q7 0 7.09 7.38v14.2h-3.63v-14a4.89 4.89 0 0 0 -1-3.4 4.6 4.6 0 0 0 -3.49-1.12 4.7 4.7 0 0 0 -4.9 4.44v14.06h-3.66v-13.86q0-4.62-4.53-4.62a4.84 4.84 0 0 0 -4.87 3v15.47h-3.63v-21.16z"/><path d="m463.57 160.71h16.31v3.07h-20.76v-2.78l15.63-22.62h-15.37v-3.07h19.88v2.69z"/><path d="m492.57 164.17a9.24 9.24 0 0 1 -7-2.83 10.49 10.49 0 0 1 -2.7-7.56v-.67a12.75 12.75 0 0 1 1.2-5.63 9.46 9.46 0 0 1 3.37-3.88 8.52 8.52 0 0 1 4.69-1.4 8 8 0 0 1 6.43 2.72q2.29 2.73 2.29 7.8v1.51h-14.37a7.63 7.63 0 0 0 1.83 5.06 5.79 5.79 0 0 0 4.46 1.93 6.24 6.24 0 0 0 3.25-.79 8 8 0 0 0 2.33-2.07l2.21 1.72a8.88 8.88 0 0 1 -7.99 4.09zm-.45-19a4.84 4.84 0 0 0 -3.68 1.59 7.84 7.84 0 0 0 -1.84 4.48h10.62v-.24a6.89 6.89 0 0 0 -1.49-4.27 4.53 4.53 0 0 0 -3.61-1.55z"/><path d="m508.46 142.59.12 2.67a7.7 7.7 0 0 1 6.34-3.06q6.72 0 6.78 7.58v14h-3.63v-14a4.89 4.89 0 0 0 -1-3.39 4.23 4.23 0 0 0 -3.21-1.09 5.27 5.27 0 0 0 -3.09.93 6.43 6.43 0 0 0 -2.08 2.47v15.1h-3.69v-21.21z"/><path d="m532.08 137.46v5.13h3.92v2.8h-3.95v13.16a2.88 2.88 0 0 0 .53 1.91 2.2 2.2 0 0 0 1.8.64 9.16 9.16 0 0 0 1.72-.23v2.92a10.93 10.93 0 0 1 -2.78.38 4.5 4.5 0 0 1 -3.66-1.46 6.34 6.34 0 0 1 -1.24-4.18v-13.14h-3.82v-2.8h3.85v-5.13z"/><path d="m550.51 145.84a11 11 0 0 0 -1.78-.13 4.78 4.78 0 0 0 -4.84 3v15h-3.63v-21.12h3.53l.06 2.45a5.65 5.65 0 0 1 5-2.84 3.77 3.77 0 0 1 1.61.27z"/><path d="m566.92 161.69a7.69 7.69 0 0 1 -6.21 2.48 6.59 6.59 0 0 1 -5.16-2 8.54 8.54 0 0 1 -1.79-5.83v-13.75h3.62v13.69q0 4.82 3.92 4.82 4.16 0 5.52-3.09v-15.42h3.63v21.19h-3.45z"/><path d="m579.36 142.59.1 2.35a7.8 7.8 0 0 1 6.28-2.74c3 0 5 1.14 6 3.41a7.91 7.91 0 0 1 6.76-3.41q7 0 7.09 7.38v14.2h-3.59v-14a4.89 4.89 0 0 0 -1-3.4 4.57 4.57 0 0 0 -3.49-1.12 4.83 4.83 0 0 0 -3.35 1.2 4.88 4.88 0 0 0 -1.54 3.24v14.06h-3.62v-13.86c0-3.08-1.5-4.62-4.52-4.62a4.85 4.85 0 0 0 -4.88 3v15.47h-3.62v-21.16z"/><path d="m620.15 153a12.35 12.35 0 0 1 2.32-7.84 7.85 7.85 0 0 1 11.94-.42v-11.04h3.59v30.08h-3.33l-.18-2.27a7.37 7.37 0 0 1 -6 2.66 7.24 7.24 0 0 1 -6-3 12.6 12.6 0 0 1 -2.32-7.87zm3.63.41a9.31 9.31 0 0 0 1.49 5.64 4.8 4.8 0 0 0 4.11 2 5.28 5.28 0 0 0 5-3.09v-9.74a5.31 5.31 0 0 0 -5-3 4.82 4.82 0 0 0 -4.15 2.05c-.96 1.43-1.45 3.46-1.45 6.15z"/><path d="m652.45 164.17a9.24 9.24 0 0 1 -7-2.83 10.49 10.49 0 0 1 -2.7-7.56v-.67a12.75 12.75 0 0 1 1.2-5.63 9.39 9.39 0 0 1 3.37-3.88 8.5 8.5 0 0 1 4.69-1.4 7.94 7.94 0 0 1 6.42 2.72q2.3 2.73 2.3 7.8v1.51h-14.37a7.53 7.53 0 0 0 1.83 5.06 5.78 5.78 0 0 0 4.46 1.93 6.26 6.26 0 0 0 3.25-.79 8.3 8.3 0 0 0 2.33-2.07l2.21 1.72a8.89 8.89 0 0 1 -7.99 4.09zm-.45-19a4.84 4.84 0 0 0 -3.68 1.59 7.77 7.77 0 0 0 -1.84 4.48h10.61v-.24a6.83 6.83 0 0 0 -1.49-4.27 4.51 4.51 0 0 0 -3.6-1.55z"/><path d="m675.15 145.84a11 11 0 0 0 -1.78-.13 4.78 4.78 0 0 0 -4.84 3v15h-3.62v-21.12h3.52l.06 2.45a5.65 5.65 0 0 1 5-2.84 3.77 3.77 0 0 1 1.61.27z"/><path d="m704.7 151.19h-12v12.59h-3.7v-28.51h17.66v3.07h-13.9v9.78h12z"/><path d="m710.6 137a2.17 2.17 0 0 1 .54-1.49 2 2 0 0 1 1.59-.6 2.08 2.08 0 0 1 1.61.6 2.13 2.13 0 0 1 .55 1.49 2 2 0 0 1 -.55 1.47 2.11 2.11 0 0 1 -1.61.59 2.06 2.06 0 0 1 -1.59-.59 2.08 2.08 0 0 1 -.54-1.47zm3.92 26.81h-3.63v-21.22h3.63z"/><path d="m723.74 142.59.12 2.67a7.71 7.71 0 0 1 6.34-3.06q6.72 0 6.78 7.58v14h-3.62v-14a4.89 4.89 0 0 0 -1.05-3.39 4.2 4.2 0 0 0 -3.2-1.09 5.28 5.28 0 0 0 -3.1.93 6.4 6.4 0 0 0 -2.07 2.47v15.1h-3.63v-21.21z"/><path d="m755.53 163.78a7.47 7.47 0 0 1 -.51-2.23 8.09 8.09 0 0 1 -6 2.62 7.51 7.51 0 0 1 -5.15-1.77 5.75 5.75 0 0 1 -2-4.49 6 6 0 0 1 2.51-5.14 11.88 11.88 0 0 1 7.08-1.83h3.54v-1.67a4.08 4.08 0 0 0 -1.14-3 4.55 4.55 0 0 0 -3.35-1.12 5.31 5.31 0 0 0 -3.25 1 2.89 2.89 0 0 0 -1.31 2.37h-3.64a5 5 0 0 1 1.12-3.07 7.77 7.77 0 0 1 3.06-2.34 10.37 10.37 0 0 1 4.24-.86 8.4 8.4 0 0 1 5.74 1.83 6.6 6.6 0 0 1 2.15 5v9.76a11.85 11.85 0 0 0 .75 4.64v.31zm-6-2.76a6.37 6.37 0 0 0 3.24-.88 5.4 5.4 0 0 0 2.21-2.29v-4.35h-2.84q-6.66 0-6.66 3.9a3.29 3.29 0 0 0 1.14 2.66 4.34 4.34 0 0 0 2.89.94z"/><path d="m767.69 142.59.12 2.67a7.71 7.71 0 0 1 6.34-3.06q6.72 0 6.78 7.58v14h-3.62v-14a4.94 4.94 0 0 0 -1-3.39 4.2 4.2 0 0 0 -3.2-1.09 5.28 5.28 0 0 0 -3.1.93 6.32 6.32 0 0 0 -2.07 2.47v15.1h-3.63v-21.21z"/><path d="m789.8 160.83h12.4v2.95h-16.82v-2.66l11.69-15.53h-11.52v-3h16.06v2.57z"/><path d="m814.75 164.17a9.24 9.24 0 0 1 -7-2.83 10.49 10.49 0 0 1 -2.7-7.56v-.67a12.75 12.75 0 0 1 1.2-5.63 9.46 9.46 0 0 1 3.37-3.88 8.5 8.5 0 0 1 4.69-1.4 8 8 0 0 1 6.43 2.72q2.29 2.73 2.29 7.8v1.51h-14.37a7.63 7.63 0 0 0 1.83 5.06 5.79 5.79 0 0 0 4.46 1.93 6.24 6.24 0 0 0 3.25-.79 8 8 0 0 0 2.33-2.07l2.21 1.72a8.89 8.89 0 0 1 -7.99 4.09zm-.45-19a4.84 4.84 0 0 0 -3.68 1.59 7.77 7.77 0 0 0 -1.84 4.48h10.62v-.24a6.89 6.89 0 0 0 -1.49-4.27 4.53 4.53 0 0 0 -3.61-1.55z"/><path d="m830.64 142.59.12 2.67a7.7 7.7 0 0 1 6.34-3.06q6.72 0 6.78 7.58v14h-3.63v-14a4.89 4.89 0 0 0 -1-3.39 4.23 4.23 0 0 0 -3.21-1.09 5.27 5.27 0 0 0 -3.09.93 6.43 6.43 0 0 0 -2.08 2.47v15.1h-3.62v-21.21z"/></g></svg>
